REM MD5 388e8bdd40cdf95a81d7b261157e33cd
FILE "Player Manager 2000 (Portugal).bin" BINARY
  TRACK 01 MODE2/2352
    INDEX 01 00:00:00
  TRACK 02 AUDIO
    INDEX 00 05:59:26
    INDEX 01 06:01:26
  TRACK 03 AUDIO
    INDEX 00 06:10:24
    INDEX 01 06:12:24
  TRACK 04 AUDIO
    INDEX 00 07:07:33
    INDEX 01 07:09:33
  TRACK 05 AUDIO
    INDEX 00 09:42:61
    INDEX 01 09:44:61
REM LEADOUT 10:44:61
